<mxfile>
    <diagram id="S13HtHxYeh_Jurc0GLFv" name="无向图">
        <mxGraphModel dx="1281" dy="676" grid="1" gridSize="10" guides="1" tooltips="1" connect="1" arrows="1" fold="1" page="1" pageScale="1" pageWidth="850" pageHeight="1100" math="0" shadow="0">
            <root>
                <mxCell id="0"/>
                <mxCell id="1" parent="0"/>
                <mxCell id="2" value="0" style="ellipse;whiteSpace=wrap;aspect=fixed;sketch=1;fillColor=#008a00;strokeColor=#005700;fontSize=19;fontColor=#000000;" parent="1" vertex="1">
                    <mxGeometry width="40" height="40" as="geometry"/>
                </mxCell>
                <mxCell id="4" value="1" style="ellipse;whiteSpace=wrap;aspect=fixed;sketch=1;fillColor=#008a00;strokeColor=#005700;fontSize=19;fontColor=#000000;" parent="1" vertex="1">
                    <mxGeometry y="160" width="40" height="40" as="geometry"/>
                </mxCell>
                <mxCell id="5" value="3" style="ellipse;whiteSpace=wrap;aspect=fixed;sketch=1;fillColor=#008a00;strokeColor=#005700;fontSize=19;fontColor=#000000;" parent="1" vertex="1">
                    <mxGeometry x="120" width="40" height="40" as="geometry"/>
                </mxCell>
                <mxCell id="6" value="" style="endArrow=none;html=1;fontSize=19;entryX=0.5;entryY=1;entryDx=0;entryDy=0;exitX=0.5;exitY=0;exitDx=0;exitDy=0;sketch=1;fontColor=#000000;" parent="1" source="4" target="2" edge="1">
                    <mxGeometry width="50" height="50" relative="1" as="geometry">
                        <mxPoint x="100" y="260" as="sourcePoint"/>
                        <mxPoint x="150" y="210" as="targetPoint"/>
                    </mxGeometry>
                </mxCell>
                <mxCell id="7" value="" style="endArrow=none;html=1;fontSize=19;exitX=0;exitY=0.5;exitDx=0;exitDy=0;sketch=1;fontColor=#000000;" parent="1" source="5" target="2" edge="1">
                    <mxGeometry width="50" height="50" relative="1" as="geometry">
                        <mxPoint x="14.142135623730951" y="105.85786437626899" as="sourcePoint"/>
                        <mxPoint x="40" y="60" as="targetPoint"/>
                    </mxGeometry>
                </mxCell>
                <mxCell id="8" value="" style="endArrow=none;html=1;fontSize=19;exitX=1;exitY=0.5;exitDx=0;exitDy=0;sketch=1;fontColor=#000000;entryX=0;entryY=1;entryDx=0;entryDy=0;" parent="1" source="4" target="18" edge="1">
                    <mxGeometry width="50" height="50" relative="1" as="geometry">
                        <mxPoint x="14.142135623730951" y="105.85786437626899" as="sourcePoint"/>
                        <mxPoint x="90" y="160" as="targetPoint"/>
                    </mxGeometry>
                </mxCell>
                <mxCell id="18" value="2" style="ellipse;whiteSpace=wrap;aspect=fixed;sketch=1;fillColor=#008a00;strokeColor=#005700;fontSize=19;fontColor=#000000;" vertex="1" parent="1">
                    <mxGeometry x="80" y="80" width="40" height="40" as="geometry"/>
                </mxCell>
                <mxCell id="19" value="" style="endArrow=none;html=1;fontSize=19;exitX=1;exitY=1;exitDx=0;exitDy=0;sketch=1;fontColor=#000000;" edge="1" parent="1" source="2">
                    <mxGeometry width="50" height="50" relative="1" as="geometry">
                        <mxPoint x="50" y="190" as="sourcePoint"/>
                        <mxPoint x="90" y="90" as="targetPoint"/>
                    </mxGeometry>
                </mxCell>
            </root>
        </mxGraphModel>
    </diagram>
    <diagram id="fEOrSrp7TqDCx2QXtdj6" name="邻接矩阵">
        <mxGraphModel dx="1281" dy="676" grid="1" gridSize="10" guides="1" tooltips="1" connect="1" arrows="1" fold="1" page="1" pageScale="1" pageWidth="850" pageHeight="1100" math="0" shadow="0">
            <root>
                <mxCell id="gH_uEYhgT6kOuPd-MqoD-0"/>
                <mxCell id="gH_uEYhgT6kOuPd-MqoD-1" parent="gH_uEYhgT6kOuPd-MqoD-0"/>
                <mxCell id="gH_uEYhgT6kOuPd-MqoD-2" value="0" style="ellipse;whiteSpace=wrap;aspect=fixed;sketch=1;fillColor=#008a00;strokeColor=#005700;fontSize=19;fontColor=#000000;" vertex="1" parent="gH_uEYhgT6kOuPd-MqoD-1">
                    <mxGeometry y="25" width="40" height="40" as="geometry"/>
                </mxCell>
                <mxCell id="gH_uEYhgT6kOuPd-MqoD-3" value="1" style="ellipse;whiteSpace=wrap;aspect=fixed;sketch=1;fillColor=#008a00;strokeColor=#005700;fontSize=19;fontColor=#000000;" vertex="1" parent="gH_uEYhgT6kOuPd-MqoD-1">
                    <mxGeometry y="185" width="40" height="40" as="geometry"/>
                </mxCell>
                <mxCell id="gH_uEYhgT6kOuPd-MqoD-4" value="3" style="ellipse;whiteSpace=wrap;aspect=fixed;sketch=1;fillColor=#008a00;strokeColor=#005700;fontSize=19;fontColor=#000000;" vertex="1" parent="gH_uEYhgT6kOuPd-MqoD-1">
                    <mxGeometry x="120" y="25" width="40" height="40" as="geometry"/>
                </mxCell>
                <mxCell id="gH_uEYhgT6kOuPd-MqoD-5" value="" style="endArrow=none;html=1;fontSize=19;entryX=0.5;entryY=1;entryDx=0;entryDy=0;exitX=0.5;exitY=0;exitDx=0;exitDy=0;sketch=1;fontColor=#000000;" edge="1" parent="gH_uEYhgT6kOuPd-MqoD-1" source="gH_uEYhgT6kOuPd-MqoD-3" target="gH_uEYhgT6kOuPd-MqoD-2">
                    <mxGeometry width="50" height="50" relative="1" as="geometry">
                        <mxPoint x="100" y="285" as="sourcePoint"/>
                        <mxPoint x="150" y="235" as="targetPoint"/>
                    </mxGeometry>
                </mxCell>
                <mxCell id="gH_uEYhgT6kOuPd-MqoD-6" value="" style="endArrow=none;html=1;fontSize=19;exitX=0;exitY=0.5;exitDx=0;exitDy=0;sketch=1;fontColor=#000000;" edge="1" parent="gH_uEYhgT6kOuPd-MqoD-1" source="gH_uEYhgT6kOuPd-MqoD-4" target="gH_uEYhgT6kOuPd-MqoD-2">
                    <mxGeometry width="50" height="50" relative="1" as="geometry">
                        <mxPoint x="14.142135623730951" y="130.857864376269" as="sourcePoint"/>
                        <mxPoint x="40" y="85" as="targetPoint"/>
                    </mxGeometry>
                </mxCell>
                <mxCell id="gH_uEYhgT6kOuPd-MqoD-7" value="" style="endArrow=none;html=1;fontSize=19;exitX=1;exitY=0.5;exitDx=0;exitDy=0;sketch=1;fontColor=#000000;entryX=0;entryY=1;entryDx=0;entryDy=0;" edge="1" parent="gH_uEYhgT6kOuPd-MqoD-1" source="gH_uEYhgT6kOuPd-MqoD-3" target="gH_uEYhgT6kOuPd-MqoD-8">
                    <mxGeometry width="50" height="50" relative="1" as="geometry">
                        <mxPoint x="14.142135623730951" y="130.857864376269" as="sourcePoint"/>
                        <mxPoint x="90" y="185" as="targetPoint"/>
                    </mxGeometry>
                </mxCell>
                <mxCell id="gH_uEYhgT6kOuPd-MqoD-8" value="2" style="ellipse;whiteSpace=wrap;aspect=fixed;sketch=1;fillColor=#008a00;strokeColor=#005700;fontSize=19;fontColor=#000000;" vertex="1" parent="gH_uEYhgT6kOuPd-MqoD-1">
                    <mxGeometry x="80" y="105" width="40" height="40" as="geometry"/>
                </mxCell>
                <mxCell id="gH_uEYhgT6kOuPd-MqoD-9" value="" style="endArrow=none;html=1;fontSize=19;exitX=1;exitY=1;exitDx=0;exitDy=0;sketch=1;fontColor=#000000;" edge="1" parent="gH_uEYhgT6kOuPd-MqoD-1" source="gH_uEYhgT6kOuPd-MqoD-2">
                    <mxGeometry width="50" height="50" relative="1" as="geometry">
                        <mxPoint x="50" y="215" as="sourcePoint"/>
                        <mxPoint x="90" y="115" as="targetPoint"/>
                    </mxGeometry>
                </mxCell>
                <mxCell id="gH_uEYhgT6kOuPd-MqoD-76" value="" style="group" vertex="1" connectable="0" parent="gH_uEYhgT6kOuPd-MqoD-1">
                    <mxGeometry x="320" width="290" height="250" as="geometry"/>
                </mxCell>
                <mxCell id="gH_uEYhgT6kOuPd-MqoD-47" value="" style="shape=table;html=1;whiteSpace=wrap;startSize=0;container=1;collapsible=0;childLayout=tableLayout;sketch=1;swimlaneFillColor=none;strokeColor=#006EAF;fillColor=none;fontColor=#000000;" vertex="1" parent="gH_uEYhgT6kOuPd-MqoD-76">
                    <mxGeometry x="50" y="50" width="240" height="200" as="geometry"/>
                </mxCell>
                <mxCell id="gH_uEYhgT6kOuPd-MqoD-48" value="" style="shape=partialRectangle;html=1;whiteSpace=wrap;collapsible=0;dropTarget=0;pointerEvents=0;fillColor=none;top=0;left=0;bottom=0;right=0;points=[[0,0.5],[1,0.5]];portConstraint=eastwest;fontColor=#000000;" vertex="1" parent="gH_uEYhgT6kOuPd-MqoD-47">
                    <mxGeometry width="240" height="50" as="geometry"/>
                </mxCell>
                <mxCell id="gH_uEYhgT6kOuPd-MqoD-49" value="0" style="shape=partialRectangle;html=1;whiteSpace=wrap;connectable=0;overflow=hidden;fillColor=none;top=0;left=0;bottom=0;right=0;fontColor=#000000;" vertex="1" parent="gH_uEYhgT6kOuPd-MqoD-48">
                    <mxGeometry width="60" height="50" as="geometry"/>
                </mxCell>
                <mxCell id="gH_uEYhgT6kOuPd-MqoD-50" value="1" style="shape=partialRectangle;html=1;whiteSpace=wrap;connectable=0;overflow=hidden;fillColor=none;top=0;left=0;bottom=0;right=0;fontColor=#000000;" vertex="1" parent="gH_uEYhgT6kOuPd-MqoD-48">
                    <mxGeometry x="60" width="60" height="50" as="geometry"/>
                </mxCell>
                <mxCell id="gH_uEYhgT6kOuPd-MqoD-51" value="1" style="shape=partialRectangle;html=1;whiteSpace=wrap;connectable=0;overflow=hidden;fillColor=none;top=0;left=0;bottom=0;right=0;fontColor=#000000;" vertex="1" parent="gH_uEYhgT6kOuPd-MqoD-48">
                    <mxGeometry x="120" width="60" height="50" as="geometry"/>
                </mxCell>
                <mxCell id="gH_uEYhgT6kOuPd-MqoD-52" value="1" style="shape=partialRectangle;html=1;whiteSpace=wrap;connectable=0;overflow=hidden;fillColor=none;top=0;left=0;bottom=0;right=0;fontColor=#000000;" vertex="1" parent="gH_uEYhgT6kOuPd-MqoD-48">
                    <mxGeometry x="180" width="60" height="50" as="geometry"/>
                </mxCell>
                <mxCell id="gH_uEYhgT6kOuPd-MqoD-53" value="" style="shape=partialRectangle;html=1;whiteSpace=wrap;collapsible=0;dropTarget=0;pointerEvents=0;fillColor=none;top=0;left=0;bottom=0;right=0;points=[[0,0.5],[1,0.5]];portConstraint=eastwest;fontColor=#000000;" vertex="1" parent="gH_uEYhgT6kOuPd-MqoD-47">
                    <mxGeometry y="50" width="240" height="50" as="geometry"/>
                </mxCell>
                <mxCell id="gH_uEYhgT6kOuPd-MqoD-54" value="1" style="shape=partialRectangle;html=1;whiteSpace=wrap;connectable=0;overflow=hidden;fillColor=none;top=0;left=0;bottom=0;right=0;fontColor=#000000;" vertex="1" parent="gH_uEYhgT6kOuPd-MqoD-53">
                    <mxGeometry width="60" height="50" as="geometry"/>
                </mxCell>
                <mxCell id="gH_uEYhgT6kOuPd-MqoD-55" value="0" style="shape=partialRectangle;html=1;whiteSpace=wrap;connectable=0;overflow=hidden;fillColor=none;top=0;left=0;bottom=0;right=0;fontColor=#000000;" vertex="1" parent="gH_uEYhgT6kOuPd-MqoD-53">
                    <mxGeometry x="60" width="60" height="50" as="geometry"/>
                </mxCell>
                <mxCell id="gH_uEYhgT6kOuPd-MqoD-56" value="1" style="shape=partialRectangle;html=1;whiteSpace=wrap;connectable=0;overflow=hidden;fillColor=none;top=0;left=0;bottom=0;right=0;fontColor=#000000;" vertex="1" parent="gH_uEYhgT6kOuPd-MqoD-53">
                    <mxGeometry x="120" width="60" height="50" as="geometry"/>
                </mxCell>
                <mxCell id="gH_uEYhgT6kOuPd-MqoD-57" value="0" style="shape=partialRectangle;html=1;whiteSpace=wrap;connectable=0;overflow=hidden;fillColor=none;top=0;left=0;bottom=0;right=0;fontColor=#000000;" vertex="1" parent="gH_uEYhgT6kOuPd-MqoD-53">
                    <mxGeometry x="180" width="60" height="50" as="geometry"/>
                </mxCell>
                <mxCell id="gH_uEYhgT6kOuPd-MqoD-58" value="" style="shape=partialRectangle;html=1;whiteSpace=wrap;collapsible=0;dropTarget=0;pointerEvents=0;fillColor=none;top=0;left=0;bottom=0;right=0;points=[[0,0.5],[1,0.5]];portConstraint=eastwest;fontColor=#000000;" vertex="1" parent="gH_uEYhgT6kOuPd-MqoD-47">
                    <mxGeometry y="100" width="240" height="50" as="geometry"/>
                </mxCell>
                <mxCell id="gH_uEYhgT6kOuPd-MqoD-59" value="1" style="shape=partialRectangle;html=1;whiteSpace=wrap;connectable=0;overflow=hidden;fillColor=none;top=0;left=0;bottom=0;right=0;fontColor=#000000;" vertex="1" parent="gH_uEYhgT6kOuPd-MqoD-58">
                    <mxGeometry width="60" height="50" as="geometry"/>
                </mxCell>
                <mxCell id="gH_uEYhgT6kOuPd-MqoD-60" value="1" style="shape=partialRectangle;html=1;whiteSpace=wrap;connectable=0;overflow=hidden;fillColor=none;top=0;left=0;bottom=0;right=0;fontColor=#000000;" vertex="1" parent="gH_uEYhgT6kOuPd-MqoD-58">
                    <mxGeometry x="60" width="60" height="50" as="geometry"/>
                </mxCell>
                <mxCell id="gH_uEYhgT6kOuPd-MqoD-61" value="0" style="shape=partialRectangle;html=1;whiteSpace=wrap;connectable=0;overflow=hidden;fillColor=none;top=0;left=0;bottom=0;right=0;fontColor=#000000;" vertex="1" parent="gH_uEYhgT6kOuPd-MqoD-58">
                    <mxGeometry x="120" width="60" height="50" as="geometry"/>
                </mxCell>
                <mxCell id="gH_uEYhgT6kOuPd-MqoD-62" value="0" style="shape=partialRectangle;html=1;whiteSpace=wrap;connectable=0;overflow=hidden;fillColor=none;top=0;left=0;bottom=0;right=0;fontColor=#000000;" vertex="1" parent="gH_uEYhgT6kOuPd-MqoD-58">
                    <mxGeometry x="180" width="60" height="50" as="geometry"/>
                </mxCell>
                <mxCell id="gH_uEYhgT6kOuPd-MqoD-63" value="" style="shape=partialRectangle;html=1;whiteSpace=wrap;collapsible=0;dropTarget=0;pointerEvents=0;fillColor=none;top=0;left=0;bottom=0;right=0;points=[[0,0.5],[1,0.5]];portConstraint=eastwest;fontColor=#000000;" vertex="1" parent="gH_uEYhgT6kOuPd-MqoD-47">
                    <mxGeometry y="150" width="240" height="50" as="geometry"/>
                </mxCell>
                <mxCell id="gH_uEYhgT6kOuPd-MqoD-64" value="1" style="shape=partialRectangle;html=1;whiteSpace=wrap;connectable=0;overflow=hidden;fillColor=none;top=0;left=0;bottom=0;right=0;fontColor=#000000;" vertex="1" parent="gH_uEYhgT6kOuPd-MqoD-63">
                    <mxGeometry width="60" height="50" as="geometry"/>
                </mxCell>
                <mxCell id="gH_uEYhgT6kOuPd-MqoD-65" value="0" style="shape=partialRectangle;html=1;whiteSpace=wrap;connectable=0;overflow=hidden;fillColor=none;top=0;left=0;bottom=0;right=0;fontColor=#000000;" vertex="1" parent="gH_uEYhgT6kOuPd-MqoD-63">
                    <mxGeometry x="60" width="60" height="50" as="geometry"/>
                </mxCell>
                <mxCell id="gH_uEYhgT6kOuPd-MqoD-66" value="0" style="shape=partialRectangle;html=1;whiteSpace=wrap;connectable=0;overflow=hidden;fillColor=none;top=0;left=0;bottom=0;right=0;fontColor=#000000;" vertex="1" parent="gH_uEYhgT6kOuPd-MqoD-63">
                    <mxGeometry x="120" width="60" height="50" as="geometry"/>
                </mxCell>
                <mxCell id="gH_uEYhgT6kOuPd-MqoD-67" value="0" style="shape=partialRectangle;html=1;whiteSpace=wrap;connectable=0;overflow=hidden;fillColor=none;top=0;left=0;bottom=0;right=0;fontColor=#000000;" vertex="1" parent="gH_uEYhgT6kOuPd-MqoD-63">
                    <mxGeometry x="180" width="60" height="50" as="geometry"/>
                </mxCell>
                <mxCell id="gH_uEYhgT6kOuPd-MqoD-68" value="0" style="ellipse;whiteSpace=wrap;aspect=fixed;sketch=1;fillColor=#008a00;strokeColor=#005700;fontSize=19;fontColor=#000000;" vertex="1" parent="gH_uEYhgT6kOuPd-MqoD-76">
                    <mxGeometry x="60" width="40" height="40" as="geometry"/>
                </mxCell>
                <mxCell id="gH_uEYhgT6kOuPd-MqoD-69" value="1" style="ellipse;whiteSpace=wrap;aspect=fixed;sketch=1;fillColor=#008a00;strokeColor=#005700;fontSize=19;fontColor=#000000;" vertex="1" parent="gH_uEYhgT6kOuPd-MqoD-76">
                    <mxGeometry x="120" width="40" height="40" as="geometry"/>
                </mxCell>
                <mxCell id="gH_uEYhgT6kOuPd-MqoD-70" value="2" style="ellipse;whiteSpace=wrap;aspect=fixed;sketch=1;fillColor=#008a00;strokeColor=#005700;fontSize=19;fontColor=#000000;" vertex="1" parent="gH_uEYhgT6kOuPd-MqoD-76">
                    <mxGeometry x="180" width="40" height="40" as="geometry"/>
                </mxCell>
                <mxCell id="gH_uEYhgT6kOuPd-MqoD-71" value="3" style="ellipse;whiteSpace=wrap;aspect=fixed;sketch=1;fillColor=#008a00;strokeColor=#005700;fontSize=19;fontColor=#000000;" vertex="1" parent="gH_uEYhgT6kOuPd-MqoD-76">
                    <mxGeometry x="240" width="40" height="40" as="geometry"/>
                </mxCell>
                <mxCell id="gH_uEYhgT6kOuPd-MqoD-72" value="0" style="ellipse;whiteSpace=wrap;aspect=fixed;sketch=1;fillColor=#008a00;strokeColor=#005700;fontSize=19;fontColor=#000000;" vertex="1" parent="gH_uEYhgT6kOuPd-MqoD-76">
                    <mxGeometry y="60" width="40" height="40" as="geometry"/>
                </mxCell>
                <mxCell id="gH_uEYhgT6kOuPd-MqoD-73" value="1" style="ellipse;whiteSpace=wrap;aspect=fixed;sketch=1;fillColor=#008a00;strokeColor=#005700;fontSize=19;fontColor=#000000;" vertex="1" parent="gH_uEYhgT6kOuPd-MqoD-76">
                    <mxGeometry y="110" width="40" height="40" as="geometry"/>
                </mxCell>
                <mxCell id="gH_uEYhgT6kOuPd-MqoD-74" value="2" style="ellipse;whiteSpace=wrap;aspect=fixed;sketch=1;fillColor=#008a00;strokeColor=#005700;fontSize=19;fontColor=#000000;" vertex="1" parent="gH_uEYhgT6kOuPd-MqoD-76">
                    <mxGeometry y="160" width="40" height="40" as="geometry"/>
                </mxCell>
                <mxCell id="gH_uEYhgT6kOuPd-MqoD-75" value="3" style="ellipse;whiteSpace=wrap;aspect=fixed;sketch=1;fillColor=#008a00;strokeColor=#005700;fontSize=19;fontColor=#000000;" vertex="1" parent="gH_uEYhgT6kOuPd-MqoD-76">
                    <mxGeometry y="210" width="40" height="40" as="geometry"/>
                </mxCell>
            </root>
        </mxGraphModel>
    </diagram>
    <diagram id="orCsafuQ7i8QPsWZikr6" name="邻接表">
        <mxGraphModel dx="1281" dy="676" grid="1" gridSize="10" guides="1" tooltips="1" connect="1" arrows="1" fold="1" page="1" pageScale="1" pageWidth="850" pageHeight="1100" math="0" shadow="0">
            <root>
                <mxCell id="o5wld8ae5DRPdggiSU_O-0"/>
                <mxCell id="o5wld8ae5DRPdggiSU_O-1" parent="o5wld8ae5DRPdggiSU_O-0"/>
                <mxCell id="tvnmzLQAOb7fhztPZdhl-0" value="0" style="ellipse;whiteSpace=wrap;aspect=fixed;sketch=1;fillColor=#008a00;strokeColor=#005700;fontSize=19;fontColor=#000000;" vertex="1" parent="o5wld8ae5DRPdggiSU_O-1">
                    <mxGeometry x="20" y="80" width="40" height="40" as="geometry"/>
                </mxCell>
                <mxCell id="tvnmzLQAOb7fhztPZdhl-1" value="1" style="ellipse;whiteSpace=wrap;aspect=fixed;sketch=1;fillColor=#008a00;strokeColor=#005700;fontSize=19;fontColor=#000000;" vertex="1" parent="o5wld8ae5DRPdggiSU_O-1">
                    <mxGeometry x="20" y="240" width="40" height="40" as="geometry"/>
                </mxCell>
                <mxCell id="tvnmzLQAOb7fhztPZdhl-2" value="3" style="ellipse;whiteSpace=wrap;aspect=fixed;sketch=1;fillColor=#008a00;strokeColor=#005700;fontSize=19;fontColor=#000000;" vertex="1" parent="o5wld8ae5DRPdggiSU_O-1">
                    <mxGeometry x="140" y="80" width="40" height="40" as="geometry"/>
                </mxCell>
                <mxCell id="tvnmzLQAOb7fhztPZdhl-3" value="" style="endArrow=none;html=1;fontSize=19;entryX=0.5;entryY=1;entryDx=0;entryDy=0;exitX=0.5;exitY=0;exitDx=0;exitDy=0;sketch=1;fontColor=#000000;" edge="1" parent="o5wld8ae5DRPdggiSU_O-1" source="tvnmzLQAOb7fhztPZdhl-1" target="tvnmzLQAOb7fhztPZdhl-0">
                    <mxGeometry width="50" height="50" relative="1" as="geometry">
                        <mxPoint x="120" y="340" as="sourcePoint"/>
                        <mxPoint x="170" y="290" as="targetPoint"/>
                    </mxGeometry>
                </mxCell>
                <mxCell id="tvnmzLQAOb7fhztPZdhl-4" value="" style="endArrow=none;html=1;fontSize=19;exitX=0;exitY=0.5;exitDx=0;exitDy=0;sketch=1;fontColor=#000000;" edge="1" parent="o5wld8ae5DRPdggiSU_O-1" source="tvnmzLQAOb7fhztPZdhl-2" target="tvnmzLQAOb7fhztPZdhl-0">
                    <mxGeometry width="50" height="50" relative="1" as="geometry">
                        <mxPoint x="34.14213562373095" y="185.857864376269" as="sourcePoint"/>
                        <mxPoint x="60" y="140" as="targetPoint"/>
                    </mxGeometry>
                </mxCell>
                <mxCell id="tvnmzLQAOb7fhztPZdhl-5" value="" style="endArrow=none;html=1;fontSize=19;exitX=1;exitY=0.5;exitDx=0;exitDy=0;sketch=1;fontColor=#000000;entryX=0;entryY=1;entryDx=0;entryDy=0;" edge="1" parent="o5wld8ae5DRPdggiSU_O-1" source="tvnmzLQAOb7fhztPZdhl-1" target="tvnmzLQAOb7fhztPZdhl-6">
                    <mxGeometry width="50" height="50" relative="1" as="geometry">
                        <mxPoint x="34.14213562373095" y="185.857864376269" as="sourcePoint"/>
                        <mxPoint x="110" y="240" as="targetPoint"/>
                    </mxGeometry>
                </mxCell>
                <mxCell id="tvnmzLQAOb7fhztPZdhl-6" value="2" style="ellipse;whiteSpace=wrap;aspect=fixed;sketch=1;fillColor=#008a00;strokeColor=#005700;fontSize=19;fontColor=#000000;" vertex="1" parent="o5wld8ae5DRPdggiSU_O-1">
                    <mxGeometry x="100" y="160" width="40" height="40" as="geometry"/>
                </mxCell>
                <mxCell id="tvnmzLQAOb7fhztPZdhl-7" value="" style="endArrow=none;html=1;fontSize=19;exitX=1;exitY=1;exitDx=0;exitDy=0;sketch=1;fontColor=#000000;" edge="1" parent="o5wld8ae5DRPdggiSU_O-1" source="tvnmzLQAOb7fhztPZdhl-0">
                    <mxGeometry width="50" height="50" relative="1" as="geometry">
                        <mxPoint x="70" y="270" as="sourcePoint"/>
                        <mxPoint x="110" y="170" as="targetPoint"/>
                    </mxGeometry>
                </mxCell>
                <mxCell id="tvnmzLQAOb7fhztPZdhl-13" style="edgeStyle=orthogonalEdgeStyle;rounded=0;orthogonalLoop=1;jettySize=auto;html=1;entryX=0;entryY=0.5;entryDx=0;entryDy=0;fontColor=#000000;sketch=1;" edge="1" parent="o5wld8ae5DRPdggiSU_O-1" source="tvnmzLQAOb7fhztPZdhl-8" target="tvnmzLQAOb7fhztPZdhl-10">
                    <mxGeometry relative="1" as="geometry"/>
                </mxCell>
                <mxCell id="tvnmzLQAOb7fhztPZdhl-8" value="0" style="ellipse;whiteSpace=wrap;aspect=fixed;sketch=1;fillColor=#008a00;strokeColor=#005700;fontSize=19;fontColor=#000000;" vertex="1" parent="o5wld8ae5DRPdggiSU_O-1">
                    <mxGeometry x="280" y="80" width="40" height="40" as="geometry"/>
                </mxCell>
                <mxCell id="tvnmzLQAOb7fhztPZdhl-9" value="" style="shape=table;html=1;whiteSpace=wrap;startSize=0;container=1;collapsible=0;childLayout=tableLayout;sketch=1;strokeColor=#006EAF;fillColor=none;fontSize=18;fontColor=#000000;" vertex="1" parent="o5wld8ae5DRPdggiSU_O-1">
                    <mxGeometry x="360" y="80" width="120" height="40" as="geometry"/>
                </mxCell>
                <mxCell id="tvnmzLQAOb7fhztPZdhl-10" value="" style="shape=partialRectangle;html=1;whiteSpace=wrap;collapsible=0;dropTarget=0;pointerEvents=0;fillColor=none;top=0;left=0;bottom=0;right=0;points=[[0,0.5],[1,0.5]];portConstraint=eastwest;fontSize=18;fontColor=#000000;" vertex="1" parent="tvnmzLQAOb7fhztPZdhl-9">
                    <mxGeometry width="120" height="40" as="geometry"/>
                </mxCell>
                <mxCell id="tvnmzLQAOb7fhztPZdhl-11" value="1" style="shape=partialRectangle;html=1;whiteSpace=wrap;connectable=0;overflow=hidden;fillColor=none;top=0;left=0;bottom=0;right=0;fontSize=18;fontColor=#000000;" vertex="1" parent="tvnmzLQAOb7fhztPZdhl-10">
                    <mxGeometry width="60" height="40" as="geometry"/>
                </mxCell>
                <mxCell id="tvnmzLQAOb7fhztPZdhl-12" value="" style="shape=partialRectangle;html=1;whiteSpace=wrap;connectable=0;overflow=hidden;fillColor=#60a917;top=0;left=0;bottom=0;right=0;fontSize=18;strokeColor=#2D7600;sketch=1;fontColor=#000000;" vertex="1" parent="tvnmzLQAOb7fhztPZdhl-10">
                    <mxGeometry x="60" width="60" height="40" as="geometry"/>
                </mxCell>
                <mxCell id="tvnmzLQAOb7fhztPZdhl-18" style="edgeStyle=orthogonalEdgeStyle;rounded=0;sketch=1;orthogonalLoop=1;jettySize=auto;html=1;entryX=0;entryY=0.5;entryDx=0;entryDy=0;fontSize=18;fontColor=#000000;" edge="1" parent="o5wld8ae5DRPdggiSU_O-1" source="tvnmzLQAOb7fhztPZdhl-10" target="tvnmzLQAOb7fhztPZdhl-26">
                    <mxGeometry relative="1" as="geometry">
                        <mxPoint x="520" y="100" as="targetPoint"/>
                    </mxGeometry>
                </mxCell>
                <mxCell id="tvnmzLQAOb7fhztPZdhl-23" style="edgeStyle=orthogonalEdgeStyle;rounded=0;sketch=1;orthogonalLoop=1;jettySize=auto;html=1;fontSize=18;entryX=0;entryY=0.5;entryDx=0;entryDy=0;fontColor=#000000;" edge="1" parent="o5wld8ae5DRPdggiSU_O-1" target="tvnmzLQAOb7fhztPZdhl-30">
                    <mxGeometry relative="1" as="geometry">
                        <mxPoint x="640" y="100" as="sourcePoint"/>
                        <mxPoint x="670" y="100" as="targetPoint"/>
                    </mxGeometry>
                </mxCell>
                <mxCell id="tvnmzLQAOb7fhztPZdhl-25" value="" style="shape=table;html=1;whiteSpace=wrap;startSize=0;container=1;collapsible=0;childLayout=tableLayout;sketch=1;strokeColor=#006EAF;fillColor=none;fontSize=18;fontColor=#000000;" vertex="1" parent="o5wld8ae5DRPdggiSU_O-1">
                    <mxGeometry x="520" y="80" width="120" height="40" as="geometry"/>
                </mxCell>
                <mxCell id="tvnmzLQAOb7fhztPZdhl-26" value="" style="shape=partialRectangle;html=1;whiteSpace=wrap;collapsible=0;dropTarget=0;pointerEvents=0;fillColor=none;top=0;left=0;bottom=0;right=0;points=[[0,0.5],[1,0.5]];portConstraint=eastwest;fontSize=18;fontColor=#000000;" vertex="1" parent="tvnmzLQAOb7fhztPZdhl-25">
                    <mxGeometry width="120" height="40" as="geometry"/>
                </mxCell>
                <mxCell id="tvnmzLQAOb7fhztPZdhl-27" value="2" style="shape=partialRectangle;html=1;whiteSpace=wrap;connectable=0;overflow=hidden;fillColor=none;top=0;left=0;bottom=0;right=0;fontSize=18;fontColor=#000000;" vertex="1" parent="tvnmzLQAOb7fhztPZdhl-26">
                    <mxGeometry width="60" height="40" as="geometry"/>
                </mxCell>
                <mxCell id="tvnmzLQAOb7fhztPZdhl-28" value="" style="shape=partialRectangle;html=1;whiteSpace=wrap;connectable=0;overflow=hidden;fillColor=#60a917;top=0;left=0;bottom=0;right=0;fontSize=18;strokeColor=#2D7600;sketch=1;fontColor=#000000;" vertex="1" parent="tvnmzLQAOb7fhztPZdhl-26">
                    <mxGeometry x="60" width="60" height="40" as="geometry"/>
                </mxCell>
                <mxCell id="tvnmzLQAOb7fhztPZdhl-29" value="" style="shape=table;html=1;whiteSpace=wrap;startSize=0;container=1;collapsible=0;childLayout=tableLayout;sketch=1;strokeColor=#006EAF;fillColor=none;fontSize=18;fontColor=#000000;" vertex="1" parent="o5wld8ae5DRPdggiSU_O-1">
                    <mxGeometry x="680" y="80" width="120" height="40" as="geometry"/>
                </mxCell>
                <mxCell id="tvnmzLQAOb7fhztPZdhl-30" value="" style="shape=partialRectangle;html=1;whiteSpace=wrap;collapsible=0;dropTarget=0;pointerEvents=0;fillColor=none;top=0;left=0;bottom=0;right=0;points=[[0,0.5],[1,0.5]];portConstraint=eastwest;fontSize=18;fontColor=#000000;" vertex="1" parent="tvnmzLQAOb7fhztPZdhl-29">
                    <mxGeometry width="120" height="40" as="geometry"/>
                </mxCell>
                <mxCell id="tvnmzLQAOb7fhztPZdhl-31" value="3" style="shape=partialRectangle;html=1;whiteSpace=wrap;connectable=0;overflow=hidden;fillColor=none;top=0;left=0;bottom=0;right=0;fontSize=18;fontColor=#000000;" vertex="1" parent="tvnmzLQAOb7fhztPZdhl-30">
                    <mxGeometry width="60" height="40" as="geometry"/>
                </mxCell>
                <mxCell id="tvnmzLQAOb7fhztPZdhl-32" value="" style="shape=partialRectangle;html=1;whiteSpace=wrap;connectable=0;overflow=hidden;fillColor=#60a917;top=0;left=0;bottom=0;right=0;fontSize=18;strokeColor=#2D7600;sketch=1;fontColor=#000000;" vertex="1" parent="tvnmzLQAOb7fhztPZdhl-30">
                    <mxGeometry x="60" width="60" height="40" as="geometry"/>
                </mxCell>
                <mxCell id="tvnmzLQAOb7fhztPZdhl-33" style="edgeStyle=orthogonalEdgeStyle;rounded=0;orthogonalLoop=1;jettySize=auto;html=1;entryX=0;entryY=0.5;entryDx=0;entryDy=0;fontColor=#000000;sketch=1;" edge="1" parent="o5wld8ae5DRPdggiSU_O-1" source="tvnmzLQAOb7fhztPZdhl-34" target="tvnmzLQAOb7fhztPZdhl-36">
                    <mxGeometry relative="1" as="geometry"/>
                </mxCell>
                <mxCell id="tvnmzLQAOb7fhztPZdhl-34" value="1" style="ellipse;whiteSpace=wrap;aspect=fixed;sketch=1;fillColor=#008a00;strokeColor=#005700;fontSize=19;fontColor=#000000;" vertex="1" parent="o5wld8ae5DRPdggiSU_O-1">
                    <mxGeometry x="280" y="140" width="40" height="40" as="geometry"/>
                </mxCell>
                <mxCell id="tvnmzLQAOb7fhztPZdhl-35" value="" style="shape=table;html=1;whiteSpace=wrap;startSize=0;container=1;collapsible=0;childLayout=tableLayout;sketch=1;strokeColor=#006EAF;fillColor=none;fontSize=18;fontColor=#000000;" vertex="1" parent="o5wld8ae5DRPdggiSU_O-1">
                    <mxGeometry x="360" y="140" width="120" height="40" as="geometry"/>
                </mxCell>
                <mxCell id="tvnmzLQAOb7fhztPZdhl-36" value="" style="shape=partialRectangle;html=1;whiteSpace=wrap;collapsible=0;dropTarget=0;pointerEvents=0;fillColor=none;top=0;left=0;bottom=0;right=0;points=[[0,0.5],[1,0.5]];portConstraint=eastwest;fontSize=18;fontColor=#000000;" vertex="1" parent="tvnmzLQAOb7fhztPZdhl-35">
                    <mxGeometry width="120" height="40" as="geometry"/>
                </mxCell>
                <mxCell id="tvnmzLQAOb7fhztPZdhl-37" value="0" style="shape=partialRectangle;html=1;whiteSpace=wrap;connectable=0;overflow=hidden;fillColor=none;top=0;left=0;bottom=0;right=0;fontSize=18;fontColor=#000000;" vertex="1" parent="tvnmzLQAOb7fhztPZdhl-36">
                    <mxGeometry width="60" height="40" as="geometry"/>
                </mxCell>
                <mxCell id="tvnmzLQAOb7fhztPZdhl-38" value="" style="shape=partialRectangle;html=1;whiteSpace=wrap;connectable=0;overflow=hidden;fillColor=#60a917;top=0;left=0;bottom=0;right=0;fontSize=18;strokeColor=#2D7600;sketch=1;fontColor=#000000;" vertex="1" parent="tvnmzLQAOb7fhztPZdhl-36">
                    <mxGeometry x="60" width="60" height="40" as="geometry"/>
                </mxCell>
                <mxCell id="tvnmzLQAOb7fhztPZdhl-39" style="edgeStyle=orthogonalEdgeStyle;rounded=0;sketch=1;orthogonalLoop=1;jettySize=auto;html=1;entryX=0;entryY=0.5;entryDx=0;entryDy=0;fontSize=18;fontColor=#000000;" edge="1" parent="o5wld8ae5DRPdggiSU_O-1" source="tvnmzLQAOb7fhztPZdhl-36" target="tvnmzLQAOb7fhztPZdhl-42">
                    <mxGeometry relative="1" as="geometry">
                        <mxPoint x="520" y="160" as="targetPoint"/>
                    </mxGeometry>
                </mxCell>
                <mxCell id="tvnmzLQAOb7fhztPZdhl-41" value="" style="shape=table;html=1;whiteSpace=wrap;startSize=0;container=1;collapsible=0;childLayout=tableLayout;sketch=1;strokeColor=#006EAF;fillColor=none;fontSize=18;fontColor=#000000;" vertex="1" parent="o5wld8ae5DRPdggiSU_O-1">
                    <mxGeometry x="520" y="140" width="120" height="40" as="geometry"/>
                </mxCell>
                <mxCell id="tvnmzLQAOb7fhztPZdhl-42" value="" style="shape=partialRectangle;html=1;whiteSpace=wrap;collapsible=0;dropTarget=0;pointerEvents=0;fillColor=none;top=0;left=0;bottom=0;right=0;points=[[0,0.5],[1,0.5]];portConstraint=eastwest;fontSize=18;fontColor=#000000;" vertex="1" parent="tvnmzLQAOb7fhztPZdhl-41">
                    <mxGeometry width="120" height="40" as="geometry"/>
                </mxCell>
                <mxCell id="tvnmzLQAOb7fhztPZdhl-43" value="2" style="shape=partialRectangle;html=1;whiteSpace=wrap;connectable=0;overflow=hidden;fillColor=none;top=0;left=0;bottom=0;right=0;fontSize=18;fontColor=#000000;" vertex="1" parent="tvnmzLQAOb7fhztPZdhl-42">
                    <mxGeometry width="60" height="40" as="geometry"/>
                </mxCell>
                <mxCell id="tvnmzLQAOb7fhztPZdhl-44" value="" style="shape=partialRectangle;html=1;whiteSpace=wrap;connectable=0;overflow=hidden;fillColor=#60a917;top=0;left=0;bottom=0;right=0;fontSize=18;strokeColor=#2D7600;sketch=1;fontColor=#000000;" vertex="1" parent="tvnmzLQAOb7fhztPZdhl-42">
                    <mxGeometry x="60" width="60" height="40" as="geometry"/>
                </mxCell>
                <mxCell id="tvnmzLQAOb7fhztPZdhl-49" style="edgeStyle=orthogonalEdgeStyle;rounded=0;orthogonalLoop=1;jettySize=auto;html=1;entryX=0;entryY=0.5;entryDx=0;entryDy=0;fontColor=#000000;sketch=1;" edge="1" parent="o5wld8ae5DRPdggiSU_O-1" source="tvnmzLQAOb7fhztPZdhl-50" target="tvnmzLQAOb7fhztPZdhl-52">
                    <mxGeometry relative="1" as="geometry"/>
                </mxCell>
                <mxCell id="tvnmzLQAOb7fhztPZdhl-50" value="2" style="ellipse;whiteSpace=wrap;aspect=fixed;sketch=1;fillColor=#008a00;strokeColor=#005700;fontSize=19;fontColor=#000000;" vertex="1" parent="o5wld8ae5DRPdggiSU_O-1">
                    <mxGeometry x="280" y="200" width="40" height="40" as="geometry"/>
                </mxCell>
                <mxCell id="tvnmzLQAOb7fhztPZdhl-51" value="" style="shape=table;html=1;whiteSpace=wrap;startSize=0;container=1;collapsible=0;childLayout=tableLayout;sketch=1;strokeColor=#006EAF;fillColor=none;fontSize=18;fontColor=#000000;" vertex="1" parent="o5wld8ae5DRPdggiSU_O-1">
                    <mxGeometry x="360" y="200" width="120" height="40" as="geometry"/>
                </mxCell>
                <mxCell id="tvnmzLQAOb7fhztPZdhl-52" value="" style="shape=partialRectangle;html=1;whiteSpace=wrap;collapsible=0;dropTarget=0;pointerEvents=0;fillColor=none;top=0;left=0;bottom=0;right=0;points=[[0,0.5],[1,0.5]];portConstraint=eastwest;fontSize=18;fontColor=#000000;" vertex="1" parent="tvnmzLQAOb7fhztPZdhl-51">
                    <mxGeometry width="120" height="40" as="geometry"/>
                </mxCell>
                <mxCell id="tvnmzLQAOb7fhztPZdhl-53" value="0" style="shape=partialRectangle;html=1;whiteSpace=wrap;connectable=0;overflow=hidden;fillColor=none;top=0;left=0;bottom=0;right=0;fontSize=18;fontColor=#000000;" vertex="1" parent="tvnmzLQAOb7fhztPZdhl-52">
                    <mxGeometry width="60" height="40" as="geometry"/>
                </mxCell>
                <mxCell id="tvnmzLQAOb7fhztPZdhl-54" value="" style="shape=partialRectangle;html=1;whiteSpace=wrap;connectable=0;overflow=hidden;fillColor=#60a917;top=0;left=0;bottom=0;right=0;fontSize=18;strokeColor=#2D7600;sketch=1;fontColor=#000000;" vertex="1" parent="tvnmzLQAOb7fhztPZdhl-52">
                    <mxGeometry x="60" width="60" height="40" as="geometry"/>
                </mxCell>
                <mxCell id="tvnmzLQAOb7fhztPZdhl-55" style="edgeStyle=orthogonalEdgeStyle;rounded=0;sketch=1;orthogonalLoop=1;jettySize=auto;html=1;entryX=0;entryY=0.5;entryDx=0;entryDy=0;fontSize=18;fontColor=#000000;" edge="1" parent="o5wld8ae5DRPdggiSU_O-1" source="tvnmzLQAOb7fhztPZdhl-52" target="tvnmzLQAOb7fhztPZdhl-58">
                    <mxGeometry relative="1" as="geometry">
                        <mxPoint x="520" y="220" as="targetPoint"/>
                    </mxGeometry>
                </mxCell>
                <mxCell id="tvnmzLQAOb7fhztPZdhl-57" value="" style="shape=table;html=1;whiteSpace=wrap;startSize=0;container=1;collapsible=0;childLayout=tableLayout;sketch=1;strokeColor=#006EAF;fillColor=none;fontSize=18;fontColor=#000000;" vertex="1" parent="o5wld8ae5DRPdggiSU_O-1">
                    <mxGeometry x="520" y="200" width="120" height="40" as="geometry"/>
                </mxCell>
                <mxCell id="tvnmzLQAOb7fhztPZdhl-58" value="" style="shape=partialRectangle;html=1;whiteSpace=wrap;collapsible=0;dropTarget=0;pointerEvents=0;fillColor=none;top=0;left=0;bottom=0;right=0;points=[[0,0.5],[1,0.5]];portConstraint=eastwest;fontSize=18;fontColor=#000000;" vertex="1" parent="tvnmzLQAOb7fhztPZdhl-57">
                    <mxGeometry width="120" height="40" as="geometry"/>
                </mxCell>
                <mxCell id="tvnmzLQAOb7fhztPZdhl-59" value="1" style="shape=partialRectangle;html=1;whiteSpace=wrap;connectable=0;overflow=hidden;fillColor=none;top=0;left=0;bottom=0;right=0;fontSize=18;fontColor=#000000;" vertex="1" parent="tvnmzLQAOb7fhztPZdhl-58">
                    <mxGeometry width="60" height="40" as="geometry"/>
                </mxCell>
                <mxCell id="tvnmzLQAOb7fhztPZdhl-60" value="" style="shape=partialRectangle;html=1;whiteSpace=wrap;connectable=0;overflow=hidden;fillColor=#60a917;top=0;left=0;bottom=0;right=0;fontSize=18;strokeColor=#2D7600;sketch=1;fontColor=#000000;" vertex="1" parent="tvnmzLQAOb7fhztPZdhl-58">
                    <mxGeometry x="60" width="60" height="40" as="geometry"/>
                </mxCell>
                <mxCell id="tvnmzLQAOb7fhztPZdhl-65" style="edgeStyle=orthogonalEdgeStyle;rounded=0;orthogonalLoop=1;jettySize=auto;html=1;entryX=0;entryY=0.5;entryDx=0;entryDy=0;fontColor=#000000;sketch=1;" edge="1" parent="o5wld8ae5DRPdggiSU_O-1" source="tvnmzLQAOb7fhztPZdhl-66" target="tvnmzLQAOb7fhztPZdhl-68">
                    <mxGeometry relative="1" as="geometry"/>
                </mxCell>
                <mxCell id="tvnmzLQAOb7fhztPZdhl-66" value="3" style="ellipse;whiteSpace=wrap;aspect=fixed;sketch=1;fillColor=#008a00;strokeColor=#005700;fontSize=19;fontColor=#000000;" vertex="1" parent="o5wld8ae5DRPdggiSU_O-1">
                    <mxGeometry x="280" y="260" width="40" height="40" as="geometry"/>
                </mxCell>
                <mxCell id="tvnmzLQAOb7fhztPZdhl-67" value="" style="shape=table;html=1;whiteSpace=wrap;startSize=0;container=1;collapsible=0;childLayout=tableLayout;sketch=1;strokeColor=#006EAF;fillColor=none;fontSize=18;fontColor=#000000;" vertex="1" parent="o5wld8ae5DRPdggiSU_O-1">
                    <mxGeometry x="360" y="260" width="120" height="40" as="geometry"/>
                </mxCell>
                <mxCell id="tvnmzLQAOb7fhztPZdhl-68" value="" style="shape=partialRectangle;html=1;whiteSpace=wrap;collapsible=0;dropTarget=0;pointerEvents=0;fillColor=none;top=0;left=0;bottom=0;right=0;points=[[0,0.5],[1,0.5]];portConstraint=eastwest;fontSize=18;fontColor=#000000;" vertex="1" parent="tvnmzLQAOb7fhztPZdhl-67">
                    <mxGeometry width="120" height="40" as="geometry"/>
                </mxCell>
                <mxCell id="tvnmzLQAOb7fhztPZdhl-69" value="3" style="shape=partialRectangle;html=1;whiteSpace=wrap;connectable=0;overflow=hidden;fillColor=none;top=0;left=0;bottom=0;right=0;fontSize=18;fontColor=#000000;" vertex="1" parent="tvnmzLQAOb7fhztPZdhl-68">
                    <mxGeometry width="60" height="40" as="geometry"/>
                </mxCell>
                <mxCell id="tvnmzLQAOb7fhztPZdhl-70" value="" style="shape=partialRectangle;html=1;whiteSpace=wrap;connectable=0;overflow=hidden;fillColor=#60a917;top=0;left=0;bottom=0;right=0;fontSize=18;strokeColor=#2D7600;sketch=1;fontColor=#000000;" vertex="1" parent="tvnmzLQAOb7fhztPZdhl-68">
                    <mxGeometry x="60" width="60" height="40" as="geometry"/>
                </mxCell>
            </root>
        </mxGraphModel>
    </diagram>
    <diagram id="eae3X3WDSjjP3fEyMpQZ" name="无向图和连通图">
        <mxGraphModel dx="1281" dy="676" grid="1" gridSize="10" guides="1" tooltips="1" connect="1" arrows="1" fold="1" page="1" pageScale="1" pageWidth="850" pageHeight="1100" math="0" shadow="0">
            <root>
                <mxCell id="knMCdFUpS8DDqkv8U4Cq-0"/>
                <mxCell id="knMCdFUpS8DDqkv8U4Cq-1" parent="knMCdFUpS8DDqkv8U4Cq-0"/>
                <mxCell id="ILavtXMKq1d8Xlr1fmwT-0" value="A" style="ellipse;whiteSpace=wrap;aspect=fixed;sketch=1;fillColor=#008a00;strokeColor=#005700;fontSize=19;fontColor=#000000;" vertex="1" parent="knMCdFUpS8DDqkv8U4Cq-1">
                    <mxGeometry width="40" height="40" as="geometry"/>
                </mxCell>
                <mxCell id="ILavtXMKq1d8Xlr1fmwT-1" value="D" style="ellipse;whiteSpace=wrap;aspect=fixed;sketch=1;fillColor=#008a00;strokeColor=#005700;fontSize=19;fontColor=#000000;" vertex="1" parent="knMCdFUpS8DDqkv8U4Cq-1">
                    <mxGeometry y="160" width="40" height="40" as="geometry"/>
                </mxCell>
                <mxCell id="ILavtXMKq1d8Xlr1fmwT-2" value="B" style="ellipse;whiteSpace=wrap;aspect=fixed;sketch=1;fillColor=#008a00;strokeColor=#005700;fontSize=19;fontColor=#000000;" vertex="1" parent="knMCdFUpS8DDqkv8U4Cq-1">
                    <mxGeometry x="140" width="40" height="40" as="geometry"/>
                </mxCell>
                <mxCell id="ILavtXMKq1d8Xlr1fmwT-3" value="" style="endArrow=none;html=1;fontSize=19;entryX=0.5;entryY=1;entryDx=0;entryDy=0;exitX=0.5;exitY=0;exitDx=0;exitDy=0;sketch=1;fontColor=#000000;" edge="1" parent="knMCdFUpS8DDqkv8U4Cq-1" source="ILavtXMKq1d8Xlr1fmwT-1" target="ILavtXMKq1d8Xlr1fmwT-0">
                    <mxGeometry width="50" height="50" relative="1" as="geometry">
                        <mxPoint x="100" y="260" as="sourcePoint"/>
                        <mxPoint x="150" y="210" as="targetPoint"/>
                    </mxGeometry>
                </mxCell>
                <mxCell id="ILavtXMKq1d8Xlr1fmwT-4" value="" style="endArrow=none;html=1;fontSize=19;exitX=0;exitY=0.5;exitDx=0;exitDy=0;sketch=1;fontColor=#000000;" edge="1" parent="knMCdFUpS8DDqkv8U4Cq-1" source="ILavtXMKq1d8Xlr1fmwT-2" target="ILavtXMKq1d8Xlr1fmwT-0">
                    <mxGeometry width="50" height="50" relative="1" as="geometry">
                        <mxPoint x="14.142135623730951" y="105.85786437626899" as="sourcePoint"/>
                        <mxPoint x="40" y="60" as="targetPoint"/>
                    </mxGeometry>
                </mxCell>
                <mxCell id="ILavtXMKq1d8Xlr1fmwT-5" value="" style="endArrow=none;html=1;fontSize=19;exitX=1;exitY=0.5;exitDx=0;exitDy=0;sketch=1;fontColor=#000000;entryX=0;entryY=0.5;entryDx=0;entryDy=0;" edge="1" parent="knMCdFUpS8DDqkv8U4Cq-1" source="ILavtXMKq1d8Xlr1fmwT-1" target="ILavtXMKq1d8Xlr1fmwT-6">
                    <mxGeometry width="50" height="50" relative="1" as="geometry">
                        <mxPoint x="14.142135623730951" y="105.85786437626899" as="sourcePoint"/>
                        <mxPoint x="90" y="160" as="targetPoint"/>
                    </mxGeometry>
                </mxCell>
                <mxCell id="ILavtXMKq1d8Xlr1fmwT-6" value="C" style="ellipse;whiteSpace=wrap;aspect=fixed;sketch=1;fillColor=#008a00;strokeColor=#005700;fontSize=19;fontColor=#000000;" vertex="1" parent="knMCdFUpS8DDqkv8U4Cq-1">
                    <mxGeometry x="140" y="160" width="40" height="40" as="geometry"/>
                </mxCell>
                <mxCell id="ILavtXMKq1d8Xlr1fmwT-7" value="" style="endArrow=none;html=1;fontSize=19;exitX=1;exitY=1;exitDx=0;exitDy=0;sketch=1;fontColor=#000000;entryX=0;entryY=0;entryDx=0;entryDy=0;" edge="1" parent="knMCdFUpS8DDqkv8U4Cq-1" source="ILavtXMKq1d8Xlr1fmwT-0" target="ILavtXMKq1d8Xlr1fmwT-6">
                    <mxGeometry width="50" height="50" relative="1" as="geometry">
                        <mxPoint x="50" y="190" as="sourcePoint"/>
                        <mxPoint x="90" y="90" as="targetPoint"/>
                    </mxGeometry>
                </mxCell>
                <mxCell id="ILavtXMKq1d8Xlr1fmwT-8" value="" style="endArrow=none;html=1;fontSize=19;sketch=1;fontColor=#000000;entryX=0.5;entryY=1;entryDx=0;entryDy=0;" edge="1" parent="knMCdFUpS8DDqkv8U4Cq-1" source="ILavtXMKq1d8Xlr1fmwT-6" target="ILavtXMKq1d8Xlr1fmwT-2">
                    <mxGeometry width="50" height="50" relative="1" as="geometry">
                        <mxPoint x="280" y="90" as="sourcePoint"/>
                        <mxPoint x="180" y="90" as="targetPoint"/>
                    </mxGeometry>
                </mxCell>
                <mxCell id="ILavtXMKq1d8Xlr1fmwT-9" value="无向图" style="text;html=1;align=center;verticalAlign=middle;resizable=0;points=[];autosize=1;strokeColor=none;fontSize=14;fontColor=#000000;" vertex="1" parent="knMCdFUpS8DDqkv8U4Cq-1">
                    <mxGeometry x="65" y="205" width="60" height="20" as="geometry"/>
                </mxCell>
                <mxCell id="ILavtXMKq1d8Xlr1fmwT-10" value="A" style="ellipse;whiteSpace=wrap;aspect=fixed;sketch=1;fillColor=#008a00;strokeColor=#005700;fontSize=19;fontColor=#000000;" vertex="1" parent="knMCdFUpS8DDqkv8U4Cq-1">
                    <mxGeometry x="280" width="40" height="40" as="geometry"/>
                </mxCell>
                <mxCell id="ILavtXMKq1d8Xlr1fmwT-11" value="D" style="ellipse;whiteSpace=wrap;aspect=fixed;sketch=1;fillColor=#008a00;strokeColor=#005700;fontSize=19;fontColor=#000000;" vertex="1" parent="knMCdFUpS8DDqkv8U4Cq-1">
                    <mxGeometry x="280" y="160" width="40" height="40" as="geometry"/>
                </mxCell>
                <mxCell id="ILavtXMKq1d8Xlr1fmwT-12" value="B" style="ellipse;whiteSpace=wrap;aspect=fixed;sketch=1;fillColor=#008a00;strokeColor=#005700;fontSize=19;fontColor=#000000;" vertex="1" parent="knMCdFUpS8DDqkv8U4Cq-1">
                    <mxGeometry x="420" width="40" height="40" as="geometry"/>
                </mxCell>
                <mxCell id="ILavtXMKq1d8Xlr1fmwT-15" value="" style="endArrow=none;html=1;fontSize=19;exitX=1;exitY=0.5;exitDx=0;exitDy=0;sketch=1;fontColor=#000000;entryX=0;entryY=0.5;entryDx=0;entryDy=0;" edge="1" parent="knMCdFUpS8DDqkv8U4Cq-1" source="ILavtXMKq1d8Xlr1fmwT-11" target="ILavtXMKq1d8Xlr1fmwT-16">
                    <mxGeometry width="50" height="50" relative="1" as="geometry">
                        <mxPoint x="294.14213562373095" y="105.85786437626899" as="sourcePoint"/>
                        <mxPoint x="370" y="160" as="targetPoint"/>
                    </mxGeometry>
                </mxCell>
                <mxCell id="ILavtXMKq1d8Xlr1fmwT-16" value="C" style="ellipse;whiteSpace=wrap;aspect=fixed;sketch=1;fillColor=#008a00;strokeColor=#005700;fontSize=19;fontColor=#000000;" vertex="1" parent="knMCdFUpS8DDqkv8U4Cq-1">
                    <mxGeometry x="420" y="160" width="40" height="40" as="geometry"/>
                </mxCell>
                <mxCell id="ILavtXMKq1d8Xlr1fmwT-17" value="" style="endArrow=none;html=1;fontSize=19;exitX=1;exitY=1;exitDx=0;exitDy=0;sketch=1;fontColor=#000000;entryX=0;entryY=0;entryDx=0;entryDy=0;" edge="1" parent="knMCdFUpS8DDqkv8U4Cq-1" source="ILavtXMKq1d8Xlr1fmwT-10" target="ILavtXMKq1d8Xlr1fmwT-16">
                    <mxGeometry width="50" height="50" relative="1" as="geometry">
                        <mxPoint x="330" y="190" as="sourcePoint"/>
                        <mxPoint x="370" y="90" as="targetPoint"/>
                    </mxGeometry>
                </mxCell>
                <mxCell id="ILavtXMKq1d8Xlr1fmwT-18" value="" style="endArrow=none;html=1;fontSize=19;sketch=1;fontColor=#000000;entryX=0.5;entryY=1;entryDx=0;entryDy=0;" edge="1" parent="knMCdFUpS8DDqkv8U4Cq-1" source="ILavtXMKq1d8Xlr1fmwT-16" target="ILavtXMKq1d8Xlr1fmwT-12">
                    <mxGeometry width="50" height="50" relative="1" as="geometry">
                        <mxPoint x="560" y="90" as="sourcePoint"/>
                        <mxPoint x="460" y="90" as="targetPoint"/>
                    </mxGeometry>
                </mxCell>
                <mxCell id="ILavtXMKq1d8Xlr1fmwT-19" value="连通图" style="text;html=1;align=center;verticalAlign=middle;resizable=0;points=[];autosize=1;strokeColor=none;fontSize=14;fontColor=#000000;" vertex="1" parent="knMCdFUpS8DDqkv8U4Cq-1">
                    <mxGeometry x="345" y="205" width="60" height="20" as="geometry"/>
                </mxCell>
            </root>
        </mxGraphModel>
    </diagram>
    <diagram id="ZXBWGaDTEvwozPdv1gM7" name="生成树">
        <mxGraphModel dx="1068" dy="563" grid="1" gridSize="10" guides="1" tooltips="1" connect="1" arrows="1" fold="1" page="1" pageScale="1" pageWidth="850" pageHeight="1100" math="0" shadow="0">
            <root>
                <mxCell id="GWcGRS1CBtOX8Vt4ctmz-0"/>
                <mxCell id="GWcGRS1CBtOX8Vt4ctmz-1" parent="GWcGRS1CBtOX8Vt4ctmz-0"/>
                <mxCell id="M-bBR9850FX7NKfXscUg-10" value="" style="group" vertex="1" connectable="0" parent="GWcGRS1CBtOX8Vt4ctmz-1">
                    <mxGeometry x="280" width="180" height="225" as="geometry"/>
                </mxCell>
                <mxCell id="M-bBR9850FX7NKfXscUg-0" value="A" style="ellipse;whiteSpace=wrap;aspect=fixed;sketch=1;fillColor=#008a00;strokeColor=#005700;fontSize=19;fontColor=#000000;" vertex="1" parent="M-bBR9850FX7NKfXscUg-10">
                    <mxGeometry width="40" height="40" as="geometry"/>
                </mxCell>
                <mxCell id="M-bBR9850FX7NKfXscUg-1" value="D" style="ellipse;whiteSpace=wrap;aspect=fixed;sketch=1;fillColor=#008a00;strokeColor=#005700;fontSize=19;fontColor=#000000;" vertex="1" parent="M-bBR9850FX7NKfXscUg-10">
                    <mxGeometry y="160" width="40" height="40" as="geometry"/>
                </mxCell>
                <mxCell id="M-bBR9850FX7NKfXscUg-2" value="B" style="ellipse;whiteSpace=wrap;aspect=fixed;sketch=1;fillColor=#008a00;strokeColor=#005700;fontSize=19;fontColor=#000000;" vertex="1" parent="M-bBR9850FX7NKfXscUg-10">
                    <mxGeometry x="140" width="40" height="40" as="geometry"/>
                </mxCell>
                <mxCell id="M-bBR9850FX7NKfXscUg-3" value="" style="endArrow=none;html=1;fontSize=19;entryX=0.5;entryY=1;entryDx=0;entryDy=0;exitX=0.5;exitY=0;exitDx=0;exitDy=0;sketch=1;fontColor=#000000;" edge="1" parent="M-bBR9850FX7NKfXscUg-10" source="M-bBR9850FX7NKfXscUg-1" target="M-bBR9850FX7NKfXscUg-0">
                    <mxGeometry width="50" height="50" relative="1" as="geometry">
                        <mxPoint x="100" y="260" as="sourcePoint"/>
                        <mxPoint x="150" y="210" as="targetPoint"/>
                    </mxGeometry>
                </mxCell>
                <mxCell id="M-bBR9850FX7NKfXscUg-4" value="" style="endArrow=none;html=1;fontSize=19;exitX=0;exitY=0.5;exitDx=0;exitDy=0;sketch=1;fontColor=#000000;" edge="1" parent="M-bBR9850FX7NKfXscUg-10" source="M-bBR9850FX7NKfXscUg-2" target="M-bBR9850FX7NKfXscUg-0">
                    <mxGeometry width="50" height="50" relative="1" as="geometry">
                        <mxPoint x="14.142135623730951" y="105.85786437626899" as="sourcePoint"/>
                        <mxPoint x="40" y="60" as="targetPoint"/>
                    </mxGeometry>
                </mxCell>
                <mxCell id="M-bBR9850FX7NKfXscUg-5" value="" style="endArrow=none;html=1;fontSize=19;exitX=1;exitY=0.5;exitDx=0;exitDy=0;sketch=1;fontColor=#000000;entryX=0;entryY=0.5;entryDx=0;entryDy=0;" edge="1" parent="M-bBR9850FX7NKfXscUg-10" source="M-bBR9850FX7NKfXscUg-1" target="M-bBR9850FX7NKfXscUg-6">
                    <mxGeometry width="50" height="50" relative="1" as="geometry">
                        <mxPoint x="14.142135623730951" y="105.85786437626899" as="sourcePoint"/>
                        <mxPoint x="90" y="160" as="targetPoint"/>
                    </mxGeometry>
                </mxCell>
                <mxCell id="M-bBR9850FX7NKfXscUg-6" value="C" style="ellipse;whiteSpace=wrap;aspect=fixed;sketch=1;fillColor=#008a00;strokeColor=#005700;fontSize=19;fontColor=#000000;" vertex="1" parent="M-bBR9850FX7NKfXscUg-10">
                    <mxGeometry x="140" y="160" width="40" height="40" as="geometry"/>
                </mxCell>
                <mxCell id="M-bBR9850FX7NKfXscUg-8" value="" style="endArrow=none;html=1;fontSize=19;sketch=1;fontColor=#000000;entryX=0.5;entryY=1;entryDx=0;entryDy=0;" edge="1" parent="M-bBR9850FX7NKfXscUg-10" source="M-bBR9850FX7NKfXscUg-6" target="M-bBR9850FX7NKfXscUg-2">
                    <mxGeometry width="50" height="50" relative="1" as="geometry">
                        <mxPoint x="280" y="90" as="sourcePoint"/>
                        <mxPoint x="180" y="90" as="targetPoint"/>
                    </mxGeometry>
                </mxCell>
                <mxCell id="M-bBR9850FX7NKfXscUg-9" value="无向连通图" style="text;html=1;align=center;verticalAlign=middle;resizable=0;points=[];autosize=1;strokeColor=none;fontSize=14;fontColor=#000000;" vertex="1" parent="M-bBR9850FX7NKfXscUg-10">
                    <mxGeometry x="50" y="205" width="90" height="20" as="geometry"/>
                </mxCell>
                <mxCell id="M-bBR9850FX7NKfXscUg-11" value="" style="shape=flexArrow;endArrow=classic;html=1;fontSize=14;fontColor=#000000;sketch=1;" edge="1" parent="GWcGRS1CBtOX8Vt4ctmz-1">
                    <mxGeometry width="50" height="50" relative="1" as="geometry">
                        <mxPoint x="380" y="240" as="sourcePoint"/>
                        <mxPoint x="380" y="290" as="targetPoint"/>
                    </mxGeometry>
                </mxCell>
                <mxCell id="M-bBR9850FX7NKfXscUg-37" value="" style="group" vertex="1" connectable="0" parent="GWcGRS1CBtOX8Vt4ctmz-1">
                    <mxGeometry x="35.03" y="280" width="94.61000000000001" height="130.00333333333333" as="geometry"/>
                </mxCell>
                <mxCell id="M-bBR9850FX7NKfXscUg-25" value="" style="group" vertex="1" connectable="0" parent="M-bBR9850FX7NKfXscUg-37">
                    <mxGeometry x="4.969999999999999" y="30" width="94.61000000000001" height="100" as="geometry"/>
                </mxCell>
                <mxCell id="M-bBR9850FX7NKfXscUg-14" value="D" style="ellipse;whiteSpace=wrap;aspect=fixed;sketch=1;fillColor=#008a00;strokeColor=#005700;fontSize=19;fontColor=#000000;" vertex="1" parent="M-bBR9850FX7NKfXscUg-25">
                    <mxGeometry y="70.36" width="29.64" height="29.64" as="geometry"/>
                </mxCell>
                <mxCell id="M-bBR9850FX7NKfXscUg-18" value="" style="endArrow=none;html=1;fontSize=19;exitX=1;exitY=0.5;exitDx=0;exitDy=0;sketch=1;fontColor=#000000;entryX=0;entryY=0.5;entryDx=0;entryDy=0;" edge="1" parent="M-bBR9850FX7NKfXscUg-25" source="M-bBR9850FX7NKfXscUg-14" target="M-bBR9850FX7NKfXscUg-19">
                    <mxGeometry width="50" height="50" relative="1" as="geometry">
                        <mxPoint x="14.398090415820633" y="46.45752766734347" as="sourcePoint"/>
                        <mxPoint x="64.97" y="75.33333333333334" as="targetPoint"/>
                    </mxGeometry>
                </mxCell>
                <mxCell id="M-bBR9850FX7NKfXscUg-19" value="C" style="ellipse;whiteSpace=wrap;aspect=fixed;sketch=1;fillColor=#008a00;strokeColor=#005700;fontSize=19;fontColor=#000000;" vertex="1" parent="M-bBR9850FX7NKfXscUg-25">
                    <mxGeometry x="64.97" y="70.36" width="29.64" height="29.64" as="geometry"/>
                </mxCell>
                <mxCell id="M-bBR9850FX7NKfXscUg-22" value="B" style="ellipse;whiteSpace=wrap;aspect=fixed;sketch=1;fillColor=#008a00;strokeColor=#005700;fontSize=19;fontColor=#000000;" vertex="1" parent="M-bBR9850FX7NKfXscUg-25">
                    <mxGeometry x="64.97000000000001" width="29.64" height="29.64" as="geometry"/>
                </mxCell>
                <mxCell id="M-bBR9850FX7NKfXscUg-23" value="A" style="ellipse;whiteSpace=wrap;aspect=fixed;sketch=1;fillColor=#008a00;strokeColor=#005700;fontSize=19;fontColor=#000000;" vertex="1" parent="M-bBR9850FX7NKfXscUg-25">
                    <mxGeometry x="1.509903313490213e-14" width="29.64" height="29.64" as="geometry"/>
                </mxCell>
                <mxCell id="M-bBR9850FX7NKfXscUg-17" value="" style="endArrow=none;html=1;fontSize=19;exitX=0;exitY=0.5;exitDx=0;exitDy=0;sketch=1;fontColor=#000000;entryX=1;entryY=0.5;entryDx=0;entryDy=0;" edge="1" parent="M-bBR9850FX7NKfXscUg-25" source="M-bBR9850FX7NKfXscUg-22" target="M-bBR9850FX7NKfXscUg-23">
                    <mxGeometry width="50" height="50" relative="1" as="geometry">
                        <mxPoint x="87.99000000001021" y="9.845000000000027" as="sourcePoint"/>
                        <mxPoint x="34.64826522043538" y="3.4318671143341817" as="targetPoint"/>
                    </mxGeometry>
                </mxCell>
                <mxCell id="M-bBR9850FX7NKfXscUg-16" value="" style="endArrow=none;html=1;fontSize=19;entryX=0.5;entryY=1;entryDx=0;entryDy=0;exitX=0.5;exitY=0;exitDx=0;exitDy=0;sketch=1;fontColor=#000000;" edge="1" parent="M-bBR9850FX7NKfXscUg-25" source="M-bBR9850FX7NKfXscUg-14" target="M-bBR9850FX7NKfXscUg-23">
                    <mxGeometry width="50" height="50" relative="1" as="geometry">
                        <mxPoint x="71.63666666666667" y="128.66666666666669" as="sourcePoint"/>
                        <mxPoint x="14.815000000000026" y="20" as="targetPoint"/>
                    </mxGeometry>
                </mxCell>
                <mxCell id="M-bBR9850FX7NKfXscUg-50" value="" style="group" vertex="1" connectable="0" parent="GWcGRS1CBtOX8Vt4ctmz-1">
                    <mxGeometry x="160.00000000000003" y="280" width="94.61000000000001" height="130.00333333333333" as="geometry"/>
                </mxCell>
                <mxCell id="M-bBR9850FX7NKfXscUg-52" value="" style="group" vertex="1" connectable="0" parent="M-bBR9850FX7NKfXscUg-50">
                    <mxGeometry x="4.969999999999999" y="30" width="94.61000000000001" height="100" as="geometry"/>
                </mxCell>
                <mxCell id="M-bBR9850FX7NKfXscUg-53" value="D" style="ellipse;whiteSpace=wrap;aspect=fixed;sketch=1;fillColor=#008a00;strokeColor=#005700;fontSize=19;fontColor=#000000;" vertex="1" parent="M-bBR9850FX7NKfXscUg-52">
                    <mxGeometry y="70.36" width="29.64" height="29.64" as="geometry"/>
                </mxCell>
                <mxCell id="M-bBR9850FX7NKfXscUg-54" value="" style="endArrow=none;html=1;fontSize=19;exitX=1;exitY=0.5;exitDx=0;exitDy=0;sketch=1;fontColor=#000000;entryX=0;entryY=0.5;entryDx=0;entryDy=0;" edge="1" parent="M-bBR9850FX7NKfXscUg-52" source="M-bBR9850FX7NKfXscUg-53" target="M-bBR9850FX7NKfXscUg-55">
                    <mxGeometry width="50" height="50" relative="1" as="geometry">
                        <mxPoint x="14.398090415820633" y="46.45752766734347" as="sourcePoint"/>
                        <mxPoint x="64.97" y="75.33333333333334" as="targetPoint"/>
                    </mxGeometry>
                </mxCell>
                <mxCell id="M-bBR9850FX7NKfXscUg-55" value="C" style="ellipse;whiteSpace=wrap;aspect=fixed;sketch=1;fillColor=#008a00;strokeColor=#005700;fontSize=19;fontColor=#000000;" vertex="1" parent="M-bBR9850FX7NKfXscUg-52">
                    <mxGeometry x="64.97" y="70.36" width="29.64" height="29.64" as="geometry"/>
                </mxCell>
                <mxCell id="M-bBR9850FX7NKfXscUg-56" value="B" style="ellipse;whiteSpace=wrap;aspect=fixed;sketch=1;fillColor=#008a00;strokeColor=#005700;fontSize=19;fontColor=#000000;" vertex="1" parent="M-bBR9850FX7NKfXscUg-52">
                    <mxGeometry x="64.97000000000001" width="29.64" height="29.64" as="geometry"/>
                </mxCell>
                <mxCell id="M-bBR9850FX7NKfXscUg-57" value="" style="endArrow=none;html=1;fontSize=19;sketch=1;fontColor=#000000;entryX=0.478;entryY=1.057;entryDx=0;entryDy=0;entryPerimeter=0;" edge="1" parent="M-bBR9850FX7NKfXscUg-52" source="M-bBR9850FX7NKfXscUg-55" target="M-bBR9850FX7NKfXscUg-56">
                    <mxGeometry width="50" height="50" relative="1" as="geometry">
                        <mxPoint x="163.27666666666667" y="38" as="sourcePoint"/>
                        <mxPoint x="146.60999999999999" y="10" as="targetPoint"/>
                    </mxGeometry>
                </mxCell>
                <mxCell id="M-bBR9850FX7NKfXscUg-58" value="A" style="ellipse;whiteSpace=wrap;aspect=fixed;sketch=1;fillColor=#008a00;strokeColor=#005700;fontSize=19;fontColor=#000000;" vertex="1" parent="M-bBR9850FX7NKfXscUg-52">
                    <mxGeometry x="1.509903313490213e-14" width="29.64" height="29.64" as="geometry"/>
                </mxCell>
                <mxCell id="M-bBR9850FX7NKfXscUg-59" value="" style="endArrow=none;html=1;fontSize=19;exitX=0;exitY=0.5;exitDx=0;exitDy=0;sketch=1;fontColor=#000000;entryX=1;entryY=0.5;entryDx=0;entryDy=0;" edge="1" parent="M-bBR9850FX7NKfXscUg-52" source="M-bBR9850FX7NKfXscUg-56" target="M-bBR9850FX7NKfXscUg-58">
                    <mxGeometry width="50" height="50" relative="1" as="geometry">
                        <mxPoint x="87.99000000001021" y="9.845000000000027" as="sourcePoint"/>
                        <mxPoint x="34.64826522043538" y="3.4318671143341817" as="targetPoint"/>
                    </mxGeometry>
                </mxCell>
                <mxCell id="M-bBR9850FX7NKfXscUg-61" value="" style="group" vertex="1" connectable="0" parent="GWcGRS1CBtOX8Vt4ctmz-1">
                    <mxGeometry x="280" y="280" width="94.61000000000001" height="130.00333333333333" as="geometry"/>
                </mxCell>
                <mxCell id="M-bBR9850FX7NKfXscUg-63" value="" style="group" vertex="1" connectable="0" parent="M-bBR9850FX7NKfXscUg-61">
                    <mxGeometry x="4.969999999999999" y="30" width="94.61000000000001" height="100" as="geometry"/>
                </mxCell>
                <mxCell id="M-bBR9850FX7NKfXscUg-64" value="D" style="ellipse;whiteSpace=wrap;aspect=fixed;sketch=1;fillColor=#008a00;strokeColor=#005700;fontSize=19;fontColor=#000000;" vertex="1" parent="M-bBR9850FX7NKfXscUg-63">
                    <mxGeometry y="70.36" width="29.64" height="29.64" as="geometry"/>
                </mxCell>
                <mxCell id="M-bBR9850FX7NKfXscUg-65" value="" style="endArrow=none;html=1;fontSize=19;exitX=1;exitY=0.5;exitDx=0;exitDy=0;sketch=1;fontColor=#000000;entryX=0;entryY=0.5;entryDx=0;entryDy=0;" edge="1" parent="M-bBR9850FX7NKfXscUg-63" source="M-bBR9850FX7NKfXscUg-64" target="M-bBR9850FX7NKfXscUg-66">
                    <mxGeometry width="50" height="50" relative="1" as="geometry">
                        <mxPoint x="14.398090415820633" y="46.45752766734347" as="sourcePoint"/>
                        <mxPoint x="64.97" y="75.33333333333334" as="targetPoint"/>
                    </mxGeometry>
                </mxCell>
                <mxCell id="M-bBR9850FX7NKfXscUg-66" value="C" style="ellipse;whiteSpace=wrap;aspect=fixed;sketch=1;fillColor=#008a00;strokeColor=#005700;fontSize=19;fontColor=#000000;" vertex="1" parent="M-bBR9850FX7NKfXscUg-63">
                    <mxGeometry x="64.97" y="70.36" width="29.64" height="29.64" as="geometry"/>
                </mxCell>
                <mxCell id="M-bBR9850FX7NKfXscUg-67" value="B" style="ellipse;whiteSpace=wrap;aspect=fixed;sketch=1;fillColor=#008a00;strokeColor=#005700;fontSize=19;fontColor=#000000;" vertex="1" parent="M-bBR9850FX7NKfXscUg-63">
                    <mxGeometry x="64.97000000000001" width="29.64" height="29.64" as="geometry"/>
                </mxCell>
                <mxCell id="M-bBR9850FX7NKfXscUg-68" value="" style="endArrow=none;html=1;fontSize=19;sketch=1;fontColor=#000000;entryX=0.478;entryY=1.057;entryDx=0;entryDy=0;entryPerimeter=0;" edge="1" parent="M-bBR9850FX7NKfXscUg-63" source="M-bBR9850FX7NKfXscUg-66" target="M-bBR9850FX7NKfXscUg-67">
                    <mxGeometry width="50" height="50" relative="1" as="geometry">
                        <mxPoint x="163.27666666666667" y="38" as="sourcePoint"/>
                        <mxPoint x="146.60999999999999" y="10" as="targetPoint"/>
                    </mxGeometry>
                </mxCell>
                <mxCell id="M-bBR9850FX7NKfXscUg-69" value="A" style="ellipse;whiteSpace=wrap;aspect=fixed;sketch=1;fillColor=#008a00;strokeColor=#005700;fontSize=19;fontColor=#000000;" vertex="1" parent="M-bBR9850FX7NKfXscUg-63">
                    <mxGeometry x="1.509903313490213e-14" width="29.64" height="29.64" as="geometry"/>
                </mxCell>
                <mxCell id="M-bBR9850FX7NKfXscUg-71" value="" style="endArrow=none;html=1;fontSize=19;entryX=0.5;entryY=1;entryDx=0;entryDy=0;exitX=0.5;exitY=0;exitDx=0;exitDy=0;sketch=1;fontColor=#000000;" edge="1" parent="M-bBR9850FX7NKfXscUg-63" source="M-bBR9850FX7NKfXscUg-64" target="M-bBR9850FX7NKfXscUg-69">
                    <mxGeometry width="50" height="50" relative="1" as="geometry">
                        <mxPoint x="71.63666666666667" y="128.66666666666669" as="sourcePoint"/>
                        <mxPoint x="14.815000000000026" y="20" as="targetPoint"/>
                    </mxGeometry>
                </mxCell>
                <mxCell id="M-bBR9850FX7NKfXscUg-72" value="" style="group" vertex="1" connectable="0" parent="GWcGRS1CBtOX8Vt4ctmz-1">
                    <mxGeometry x="404.97" y="310" width="94.61000000000001" height="130.00333333333333" as="geometry"/>
                </mxCell>
                <mxCell id="M-bBR9850FX7NKfXscUg-74" value="" style="group" vertex="1" connectable="0" parent="M-bBR9850FX7NKfXscUg-72">
                    <mxGeometry width="94.61000000000001" height="100" as="geometry"/>
                </mxCell>
                <mxCell id="M-bBR9850FX7NKfXscUg-75" value="D" style="ellipse;whiteSpace=wrap;aspect=fixed;sketch=1;fillColor=#008a00;strokeColor=#005700;fontSize=19;fontColor=#000000;" vertex="1" parent="M-bBR9850FX7NKfXscUg-74">
                    <mxGeometry y="70.36" width="29.64" height="29.64" as="geometry"/>
                </mxCell>
                <mxCell id="M-bBR9850FX7NKfXscUg-77" value="C" style="ellipse;whiteSpace=wrap;aspect=fixed;sketch=1;fillColor=#008a00;strokeColor=#005700;fontSize=19;fontColor=#000000;" vertex="1" parent="M-bBR9850FX7NKfXscUg-74">
                    <mxGeometry x="64.97" y="70.36" width="29.64" height="29.64" as="geometry"/>
                </mxCell>
                <mxCell id="M-bBR9850FX7NKfXscUg-78" value="B" style="ellipse;whiteSpace=wrap;aspect=fixed;sketch=1;fillColor=#008a00;strokeColor=#005700;fontSize=19;fontColor=#000000;" vertex="1" parent="M-bBR9850FX7NKfXscUg-74">
                    <mxGeometry x="64.97000000000001" width="29.64" height="29.64" as="geometry"/>
                </mxCell>
                <mxCell id="M-bBR9850FX7NKfXscUg-79" value="" style="endArrow=none;html=1;fontSize=19;sketch=1;fontColor=#000000;entryX=0.478;entryY=1.057;entryDx=0;entryDy=0;entryPerimeter=0;" edge="1" parent="M-bBR9850FX7NKfXscUg-74" source="M-bBR9850FX7NKfXscUg-77" target="M-bBR9850FX7NKfXscUg-78">
                    <mxGeometry width="50" height="50" relative="1" as="geometry">
                        <mxPoint x="163.27666666666667" y="38" as="sourcePoint"/>
                        <mxPoint x="146.60999999999999" y="10" as="targetPoint"/>
                    </mxGeometry>
                </mxCell>
                <mxCell id="M-bBR9850FX7NKfXscUg-80" value="A" style="ellipse;whiteSpace=wrap;aspect=fixed;sketch=1;fillColor=#008a00;strokeColor=#005700;fontSize=19;fontColor=#000000;" vertex="1" parent="M-bBR9850FX7NKfXscUg-74">
                    <mxGeometry x="1.509903313490213e-14" width="29.64" height="29.64" as="geometry"/>
                </mxCell>
                <mxCell id="M-bBR9850FX7NKfXscUg-81" value="" style="endArrow=none;html=1;fontSize=19;exitX=0;exitY=0.5;exitDx=0;exitDy=0;sketch=1;fontColor=#000000;entryX=1;entryY=0.5;entryDx=0;entryDy=0;" edge="1" parent="M-bBR9850FX7NKfXscUg-74" source="M-bBR9850FX7NKfXscUg-78" target="M-bBR9850FX7NKfXscUg-80">
                    <mxGeometry width="50" height="50" relative="1" as="geometry">
                        <mxPoint x="87.99000000001021" y="9.845000000000027" as="sourcePoint"/>
                        <mxPoint x="34.64826522043538" y="3.4318671143341817" as="targetPoint"/>
                    </mxGeometry>
                </mxCell>
                <mxCell id="M-bBR9850FX7NKfXscUg-82" value="" style="endArrow=none;html=1;fontSize=19;entryX=0.5;entryY=1;entryDx=0;entryDy=0;exitX=0.5;exitY=0;exitDx=0;exitDy=0;sketch=1;fontColor=#000000;" edge="1" parent="M-bBR9850FX7NKfXscUg-74" source="M-bBR9850FX7NKfXscUg-75" target="M-bBR9850FX7NKfXscUg-80">
                    <mxGeometry width="50" height="50" relative="1" as="geometry">
                        <mxPoint x="71.63666666666667" y="128.66666666666669" as="sourcePoint"/>
                        <mxPoint x="14.815000000000026" y="20" as="targetPoint"/>
                    </mxGeometry>
                </mxCell>
                <mxCell id="M-bBR9850FX7NKfXscUg-83" value="" style="group" vertex="1" connectable="0" parent="GWcGRS1CBtOX8Vt4ctmz-1">
                    <mxGeometry x="520" y="310" width="94.61000000000001" height="130.00333333333333" as="geometry"/>
                </mxCell>
                <mxCell id="M-bBR9850FX7NKfXscUg-85" value="" style="group" vertex="1" connectable="0" parent="M-bBR9850FX7NKfXscUg-83">
                    <mxGeometry width="94.61000000000001" height="100" as="geometry"/>
                </mxCell>
                <mxCell id="M-bBR9850FX7NKfXscUg-86" value="D" style="ellipse;whiteSpace=wrap;aspect=fixed;sketch=1;fillColor=#008a00;strokeColor=#005700;fontSize=19;fontColor=#000000;" vertex="1" parent="M-bBR9850FX7NKfXscUg-85">
                    <mxGeometry y="70.36" width="29.64" height="29.64" as="geometry"/>
                </mxCell>
                <mxCell id="M-bBR9850FX7NKfXscUg-88" value="C" style="ellipse;whiteSpace=wrap;aspect=fixed;sketch=1;fillColor=#008a00;strokeColor=#005700;fontSize=19;fontColor=#000000;" vertex="1" parent="M-bBR9850FX7NKfXscUg-85">
                    <mxGeometry x="64.97" y="70.36" width="29.64" height="29.64" as="geometry"/>
                </mxCell>
                <mxCell id="M-bBR9850FX7NKfXscUg-89" value="B" style="ellipse;whiteSpace=wrap;aspect=fixed;sketch=1;fillColor=#008a00;strokeColor=#005700;fontSize=19;fontColor=#000000;" vertex="1" parent="M-bBR9850FX7NKfXscUg-85">
                    <mxGeometry x="64.97000000000001" width="29.64" height="29.64" as="geometry"/>
                </mxCell>
                <mxCell id="M-bBR9850FX7NKfXscUg-91" value="A" style="ellipse;whiteSpace=wrap;aspect=fixed;sketch=1;fillColor=#008a00;strokeColor=#005700;fontSize=19;fontColor=#000000;" vertex="1" parent="M-bBR9850FX7NKfXscUg-85">
                    <mxGeometry x="1.509903313490213e-14" width="29.64" height="29.64" as="geometry"/>
                </mxCell>
                <mxCell id="M-bBR9850FX7NKfXscUg-92" value="" style="endArrow=none;html=1;fontSize=19;exitX=0;exitY=0.5;exitDx=0;exitDy=0;sketch=1;fontColor=#000000;entryX=1;entryY=0.5;entryDx=0;entryDy=0;" edge="1" parent="M-bBR9850FX7NKfXscUg-85" source="M-bBR9850FX7NKfXscUg-89" target="M-bBR9850FX7NKfXscUg-91">
                    <mxGeometry width="50" height="50" relative="1" as="geometry">
                        <mxPoint x="87.99000000001021" y="9.845000000000027" as="sourcePoint"/>
                        <mxPoint x="34.64826522043538" y="3.4318671143341817" as="targetPoint"/>
                    </mxGeometry>
                </mxCell>
                <mxCell id="M-bBR9850FX7NKfXscUg-93" value="" style="endArrow=none;html=1;fontSize=19;entryX=0.5;entryY=1;entryDx=0;entryDy=0;exitX=0.5;exitY=0;exitDx=0;exitDy=0;sketch=1;fontColor=#000000;" edge="1" parent="M-bBR9850FX7NKfXscUg-85" source="M-bBR9850FX7NKfXscUg-86" target="M-bBR9850FX7NKfXscUg-91">
                    <mxGeometry width="50" height="50" relative="1" as="geometry">
                        <mxPoint x="71.63666666666667" y="128.66666666666669" as="sourcePoint"/>
                        <mxPoint x="14.815000000000026" y="20" as="targetPoint"/>
                    </mxGeometry>
                </mxCell>
                <mxCell id="M-bBR9850FX7NKfXscUg-95" value="" style="endArrow=none;html=1;fontSize=19;exitX=0;exitY=0;exitDx=0;exitDy=0;sketch=1;fontColor=#000000;entryX=1;entryY=1;entryDx=0;entryDy=0;" edge="1" parent="M-bBR9850FX7NKfXscUg-85" source="M-bBR9850FX7NKfXscUg-88" target="M-bBR9850FX7NKfXscUg-91">
                    <mxGeometry width="50" height="50" relative="1" as="geometry">
                        <mxPoint x="74.96999999999389" y="24.819999999999936" as="sourcePoint"/>
                        <mxPoint x="39.63999999999669" y="24.819999999999936" as="targetPoint"/>
                    </mxGeometry>
                </mxCell>
                <mxCell id="M-bBR9850FX7NKfXscUg-96" value="" style="group" vertex="1" connectable="0" parent="GWcGRS1CBtOX8Vt4ctmz-1">
                    <mxGeometry x="630" y="310" width="94.61000000000001" height="100" as="geometry"/>
                </mxCell>
                <mxCell id="M-bBR9850FX7NKfXscUg-97" value="D" style="ellipse;whiteSpace=wrap;aspect=fixed;sketch=1;fillColor=#008a00;strokeColor=#005700;fontSize=19;fontColor=#000000;" vertex="1" parent="M-bBR9850FX7NKfXscUg-96">
                    <mxGeometry y="70.36" width="29.64" height="29.64" as="geometry"/>
                </mxCell>
                <mxCell id="M-bBR9850FX7NKfXscUg-98" value="C" style="ellipse;whiteSpace=wrap;aspect=fixed;sketch=1;fillColor=#008a00;strokeColor=#005700;fontSize=19;fontColor=#000000;" vertex="1" parent="M-bBR9850FX7NKfXscUg-96">
                    <mxGeometry x="64.97" y="70.36" width="29.64" height="29.64" as="geometry"/>
                </mxCell>
                <mxCell id="M-bBR9850FX7NKfXscUg-99" value="B" style="ellipse;whiteSpace=wrap;aspect=fixed;sketch=1;fillColor=#008a00;strokeColor=#005700;fontSize=19;fontColor=#000000;" vertex="1" parent="M-bBR9850FX7NKfXscUg-96">
                    <mxGeometry x="64.97000000000001" width="29.64" height="29.64" as="geometry"/>
                </mxCell>
                <mxCell id="M-bBR9850FX7NKfXscUg-100" value="A" style="ellipse;whiteSpace=wrap;aspect=fixed;sketch=1;fillColor=#008a00;strokeColor=#005700;fontSize=19;fontColor=#000000;" vertex="1" parent="M-bBR9850FX7NKfXscUg-96">
                    <mxGeometry x="1.509903313490213e-14" width="29.64" height="29.64" as="geometry"/>
                </mxCell>
                <mxCell id="M-bBR9850FX7NKfXscUg-101" value="" style="endArrow=none;html=1;fontSize=19;exitX=0.5;exitY=1;exitDx=0;exitDy=0;sketch=1;fontColor=#000000;entryX=0.5;entryY=0;entryDx=0;entryDy=0;" edge="1" parent="M-bBR9850FX7NKfXscUg-96" source="M-bBR9850FX7NKfXscUg-99" target="M-bBR9850FX7NKfXscUg-98">
                    <mxGeometry width="50" height="50" relative="1" as="geometry">
                        <mxPoint x="87.99000000001021" y="9.845000000000027" as="sourcePoint"/>
                        <mxPoint x="34.64826522043538" y="3.4318671143341817" as="targetPoint"/>
                    </mxGeometry>
                </mxCell>
                <mxCell id="M-bBR9850FX7NKfXscUg-102" value="" style="endArrow=none;html=1;fontSize=19;entryX=0.5;entryY=1;entryDx=0;entryDy=0;exitX=0.5;exitY=0;exitDx=0;exitDy=0;sketch=1;fontColor=#000000;" edge="1" parent="M-bBR9850FX7NKfXscUg-96" source="M-bBR9850FX7NKfXscUg-97" target="M-bBR9850FX7NKfXscUg-100">
                    <mxGeometry width="50" height="50" relative="1" as="geometry">
                        <mxPoint x="71.63666666666667" y="128.66666666666669" as="sourcePoint"/>
                        <mxPoint x="14.815000000000026" y="20" as="targetPoint"/>
                    </mxGeometry>
                </mxCell>
                <mxCell id="M-bBR9850FX7NKfXscUg-103" value="" style="endArrow=none;html=1;fontSize=19;exitX=1;exitY=0;exitDx=0;exitDy=0;sketch=1;fontColor=#000000;entryX=0;entryY=1;entryDx=0;entryDy=0;" edge="1" parent="M-bBR9850FX7NKfXscUg-96" source="M-bBR9850FX7NKfXscUg-97" target="M-bBR9850FX7NKfXscUg-99">
                    <mxGeometry width="50" height="50" relative="1" as="geometry">
                        <mxPoint x="74.96999999999389" y="24.819999999999936" as="sourcePoint"/>
                        <mxPoint x="39.63999999999669" y="24.819999999999936" as="targetPoint"/>
                    </mxGeometry>
                </mxCell>
                <mxCell id="M-bBR9850FX7NKfXscUg-104" value="生成树" style="text;html=1;align=center;verticalAlign=middle;resizable=0;points=[];autosize=1;strokeColor=none;fontSize=14;fontColor=#000000;" vertex="1" parent="GWcGRS1CBtOX8Vt4ctmz-1">
                    <mxGeometry x="340" y="440" width="60" height="20" as="geometry"/>
                </mxCell>
            </root>
        </mxGraphModel>
    </diagram>
</mxfile>